<?xml version="1.0" encoding="utf-8"?>
<!-- Generator: Adobe Illustrator 26.3.1, SVG Export Plug-In . SVG Version: 6.00 Build 0)  -->
<svg version="1.1" id="Layer_4" xmlns="http://www.w3.org/2000/svg" xmlns:xlink="http://www.w3.org/1999/xlink" x="0px" y="0px"
	 viewBox="0 0 149.2 172.2" style="enable-background:new 0 0 149.2 172.2;" xml:space="preserve">
<style type="text/css">
	.st0{fill:#585858;}
</style>
<g>
	<path class="st0" d="M147.4,83.5l-8.8-3.4c-1-0.4-1.6-1.2-1.7-2.2c-0.1-1,0.3-2,1.1-2.6l7.6-5.6c0.9-0.7,1.3-1.8,1-2.9
		c-0.3-1.1-1.2-1.9-2.4-2l-9.4-1c-1-0.1-1.9-0.7-2.2-1.7c-0.4-1-0.3-2,0.4-2.8l5.9-7.4c0.7-0.9,0.8-2.1,0.2-3.1
		c-0.6-1-1.7-1.5-2.8-1.3l-9.3,1.4c-1,0.2-2-0.2-2.6-1c-0.6-0.8-0.8-1.8-0.3-2.8l3.8-8.6c0.5-1.1,0.2-2.2-0.6-3.1
		c-0.8-0.8-2-1-3.1-0.6l-8.6,3.8c-0.9,0.4-2,0.3-2.8-0.3c-0.8-0.6-1.2-1.6-1-2.6l1.4-9.3c0.2-1.1-0.3-2.2-1.3-2.8
		c-1-0.6-2.2-0.5-3.1,0.2l-7.4,5.9c-0.8,0.6-1.8,0.8-2.8,0.4c-1-0.4-1.6-1.2-1.7-2.2l-1-9.4c-0.1-1.2-0.9-2.1-2-2.4
		c-1.1-0.3-2.3,0.1-2.9,1l-5.6,7.6c-0.6,0.8-1.6,1.2-2.6,1.1c-1-0.1-1.8-0.8-2.2-1.7l-3.4-8.8c-0.4-1.1-1.4-1.8-2.6-1.8
		c-1.2,0-2.1,0.7-2.6,1.8l-3.4,8.8c-0.4,1-1.2,1.6-2.2,1.7c-1,0.1-2-0.3-2.6-1.1l-5.6-7.6c-0.7-0.9-1.8-1.3-2.9-1
		c-1.1,0.3-1.9,1.2-2,2.4l-1,9.4c-0.1,1-0.7,1.9-1.7,2.2c-1,0.4-2,0.2-2.8-0.4l-7.4-5.9c-0.9-0.7-2.1-0.8-3.1-0.2
		c-1,0.6-1.5,1.7-1.3,2.8l1.4,9.3c0.2,1-0.2,2-1,2.6c-0.8,0.6-1.8,0.8-2.8,0.3l-8.6-3.8c-1.1-0.5-2.2-0.2-3.1,0.6
		c-0.8,0.8-1,2-0.6,3.1l3.8,8.6c0.4,0.9,0.3,2-0.3,2.8c-0.6,0.8-1.6,1.2-2.6,1l-9.3-1.4c-1.1-0.2-2.2,0.3-2.8,1.3
		c-0.6,1-0.5,2.2,0.2,3.1l5.9,7.4c0.6,0.8,0.8,1.8,0.4,2.8c-0.4,1-1.2,1.6-2.2,1.7l-9.4,1c-1.2,0.1-2.1,0.9-2.4,2
		c-0.3,1.1,0.1,2.3,1,2.9l7.6,5.6c0.8,0.6,1.2,1.6,1.1,2.6c-0.1,1-0.8,1.8-1.7,2.2l-8.8,3.4C0.7,84,0,84.9,0,86.1
		c0,1.2,0.7,2.1,1.8,2.6l8.8,3.4c1,0.4,1.6,1.2,1.7,2.2c0.1,1-0.3,2-1.1,2.6l-7.6,5.6c-0.9,0.7-1.3,1.8-1,2.9c0.3,1.1,1.2,1.9,2.4,2
		l9.4,1c1,0.1,1.9,0.7,2.2,1.7c0.4,1,0.2,2-0.4,2.8l-5.9,7.4c-0.7,0.9-0.8,2.1-0.2,3.1c0.6,1,1.7,1.5,2.8,1.3l9.3-1.4
		c1-0.2,2,0.2,2.6,1c0.6,0.8,0.8,1.8,0.3,2.8l-3.8,8.6c-0.5,1.1-0.2,2.2,0.6,3.1c0.8,0.8,2,1,3.1,0.6l8.6-3.8c0.9-0.4,2-0.3,2.8,0.3
		c0.8,0.6,1.2,1.6,1,2.6l-1.4,9.3c-0.2,1.1,0.3,2.2,1.3,2.8c1,0.6,2.2,0.5,3.1-0.2l7.4-5.9c0.8-0.6,1.8-0.8,2.8-0.4
		c1,0.4,1.6,1.2,1.7,2.2l1,9.4c0.1,1.2,0.9,2.1,2,2.4c1.1,0.3,2.3-0.1,2.9-1l5.6-7.6c0.6-0.8,1.6-1.2,2.6-1.1c1,0.1,1.8,0.8,2.2,1.7
		l3.4,8.8c0.4,1.1,1.4,1.8,2.6,1.8c1.2,0,2.1-0.7,2.6-1.8l3.4-8.8c0.4-1,1.2-1.6,2.2-1.7c1-0.1,2,0.3,2.6,1.1l5.6,7.6
		c0.7,0.9,1.8,1.3,2.9,1c1.1-0.3,1.9-1.2,2-2.4l1-9.4c0.1-1,0.7-1.9,1.7-2.2c1-0.4,2-0.2,2.8,0.4l7.4,5.9c0.9,0.7,2.1,0.8,3.1,0.2
		c1-0.6,1.5-1.7,1.3-2.8l-1.4-9.3c-0.2-1,0.2-2,1-2.6c0.8-0.6,1.8-0.8,2.8-0.3l8.6,3.8c1.1,0.5,2.2,0.2,3.1-0.6c0.8-0.8,1-2,0.6-3.1
		l-3.8-8.6c-0.4-0.9-0.3-2,0.3-2.8c0.6-0.8,1.6-1.2,2.6-1l9.3,1.4c1.1,0.2,2.2-0.3,2.8-1.3c0.6-1,0.5-2.2-0.2-3.1l-5.9-7.4
		c-0.6-0.8-0.8-1.8-0.4-2.8c0.4-1,1.2-1.6,2.2-1.7l9.4-1c1.2-0.1,2.1-0.9,2.4-2c0.3-1.1-0.1-2.3-1-2.9l-7.6-5.6
		c-0.8-0.6-1.2-1.6-1.1-2.6c0.1-1,0.8-1.8,1.7-2.2l8.8-3.4c1.1-0.4,1.8-1.4,1.8-2.6C149.2,84.9,148.5,84,147.4,83.5z M82.7,44.6
		c0-2.2,1-4.1,2.8-5.3c1.8-1.3,3.9-1.6,5.9-0.8c14.4,5.1,25.8,16.5,30.9,30.9c0.7,2.1,0.4,4.2-0.8,5.9c-1.3,1.8-3.1,2.8-5.3,2.8
		H95.7c-2,0-3.7-0.9-4.7-2.6c-1.5-2.3-3.4-4.2-5.7-5.7c-1.7-1.1-2.6-2.8-2.6-4.7V44.6z M27,69.3C32,54.9,43.4,43.5,57.8,38.5
		c2.1-0.7,4.2-0.4,5.9,0.8c1.8,1.3,2.8,3.1,2.8,5.3V65c0,2-0.9,3.7-2.6,4.7c-2.3,1.5-4.2,3.4-5.7,5.7c-1.1,1.7-2.8,2.6-4.7,2.6H33.1
		c-2.2,0-4.1-1-5.3-2.8C26.5,73.5,26.2,71.4,27,69.3z M66.5,127.6c0,2.2-1,4.1-2.8,5.3c-1.8,1.3-3.9,1.6-5.9,0.8
		C43.4,128.7,32,117.3,27,102.9c-0.7-2.1-0.4-4.2,0.8-5.9c1.3-1.8,3.1-2.8,5.3-2.8h20.4c2,0,3.7,0.9,4.7,2.6
		c1.5,2.3,3.4,4.2,5.7,5.7c1.7,1.1,2.6,2.8,2.6,4.7V127.6z M74.6,94.9c-4.9,0-8.8-4-8.8-8.8c0-4.9,4-8.8,8.8-8.8
		c4.9,0,8.8,4,8.8,8.8C83.4,91,79.5,94.9,74.6,94.9z M122.2,102.9c-5.1,14.4-16.5,25.8-30.9,30.9c-2.1,0.7-4.2,0.4-5.9-0.8
		c-1.8-1.3-2.8-3.1-2.8-5.3v-20.4c0-2,0.9-3.7,2.6-4.7c2.3-1.5,4.2-3.4,5.7-5.7c1.1-1.7,2.8-2.6,4.7-2.6h20.4c2.2,0,4.1,1,5.3,2.8
		C122.7,98.7,123,100.8,122.2,102.9z"/>
</g>
</svg>
